HIERARCHY
ROOT hip
{
  OFFSET 0 0 0
  CHANNELS 6 Xposition Yposition Zposition Zrotation Yrotation Xrotation
  JOINT abdomen
  {
    OFFSET 0 20.6881 -0.73152
    CHANNELS 3 Zrotation Xrotation Yrotation
    JOINT chest
    {
      OFFSET 0 11.7043 -0.48768
      CHANNELS 3 Zrotation Xrotation Yrotation
      JOINT neck
      {
        OFFSET 0 22.1894 -2.19456
        CHANNELS 3 Zrotation Xrotation Yrotation
        JOINT head
        {
          OFFSET -0.24384 7.07133 1.2192
          CHANNELS 3 Zrotation Xrotation Yrotation
          JOINT leftEye
          {
            OFFSET 4.14528 8.04674 8.04672
            CHANNELS 3 Zrotation Xrotation Yrotation
            End Site
            {
              OFFSET 1 0 0
            }
          }
          JOINT rightEye
          {
            OFFSET -3.6576 8.04674 8.04672
            CHANNELS 3 Zrotation Xrotation Yrotation
            End Site
            {
              OFFSET 1 0 0
            }
          }
        }
      }
      JOINT rCollar
      {
        OFFSET -2.68224 19.2634 -4.8768
        CHANNELS 3 Zrotation Xrotation Yrotation
        JOINT rShldr
        {
          OFFSET -8.77824 -1.95073 1.46304
          CHANNELS 3 Zrotation Xrotation Yrotation
          JOINT rForeArm
          {
            OFFSET -28.1742 -1.7115 0.48768
            CHANNELS 3 Zrotation Xrotation Yrotation
            JOINT rHand
            {
              OFFSET -22.5879 0.773209 7.07136
              CHANNELS 3 Zrotation Xrotation Yrotation
              JOINT rThumb1
              {
                OFFSET -1.2192 -0.487915 3.41376
                CHANNELS 3 Zrotation Xrotation Yrotation
                JOINT rThumb2
                {
                  OFFSET -3.37035 -0.52449 3.41376
                  CHANNELS 3 Zrotation Xrotation Yrotation
                  End Site
                  {
                    OFFSET -1.78271 -1.18214 1.43049
                  }
                }
              }
              JOINT rIndex1
              {
                OFFSET -7.75947 0.938293 5.60832
                CHANNELS 3 Zrotation Xrotation Yrotation
                JOINT rIndex2
                {
                  OFFSET -2.54057 -0.884171 1.56538
                  CHANNELS 3 Zrotation Xrotation Yrotation
                  End Site
                  {
                    OFFSET -1.62519 -0.234802 1.16502
                  }
                }
              }
              JOINT rMid1
              {
                OFFSET -8.24714 1.18213 3.41376
                CHANNELS 3 Zrotation Xrotation Yrotation
                JOINT rMid2
                {
                  OFFSET -3.10165 -0.590103 1.0647
                  CHANNELS 3 Zrotation Xrotation Yrotation
                  End Site
                  {
                    OFFSET -2.48547 -0.328903 0.83742
                  }
                }
              }
              JOINT rRing1
              {
                OFFSET -8.82822 0.546677 1.51678
                CHANNELS 3 Zrotation Xrotation Yrotation
                JOINT rRing2
                {
                  OFFSET -2.60934 -0.819778 -0.0198488
                  CHANNELS 3 Zrotation Xrotation Yrotation
                  End Site
                  {
                    OFFSET -2.33842 -0.294052 0.168128
                  }
                }
              }
              JOINT rPinky1
              {
                OFFSET -8.27202 -0.0477905 -0.4584
                CHANNELS 3 Zrotation Xrotation Yrotation
                JOINT rPinky2
                {
                  OFFSET -1.82734 -0.647385 -0.700984
                  CHANNELS 3 Zrotation Xrotation Yrotation
                  End Site
                  {
                    OFFSET -1.69225 -0.51767 -0.607171
                  }
                }
              }
            }
          }
        }
      }
      JOINT lCollar
      {
        OFFSET 2.68224 19.2634 -4.8768
        CHANNELS 3 Zrotation Xrotation Yrotation
        JOINT lShldr
        {
          OFFSET 8.77824 -1.95073 1.46304
          CHANNELS 3 Zrotation Xrotation Yrotation
          JOINT lForeArm
          {
            OFFSET 28.1742 -1.7115 0.48768
            CHANNELS 3 Zrotation Xrotation Yrotation
            JOINT lHand
            {
              OFFSET 22.5879 0.773209 7.07136
              CHANNELS 3 Zrotation Xrotation Yrotation
              JOINT lThumb1
              {
                OFFSET 1.2192 -0.487915 3.41376
                CHANNELS 3 Zrotation Xrotation Yrotation
                JOINT lThumb2
                {
                  OFFSET 3.37035 -0.52449 3.41376
                  CHANNELS 3 Zrotation Xrotation Yrotation
                  End Site
                  {
                    OFFSET 1.78271 -1.18214 1.43049
                  }
                }
              }
              JOINT lIndex1
              {
                OFFSET 7.75947 0.938293 5.60832
                CHANNELS 3 Zrotation Xrotation Yrotation
                JOINT lIndex2
                {
                  OFFSET 2.54057 -0.884171 1.56538
                  CHANNELS 3 Zrotation Xrotation Yrotation
                  End Site
                  {
                    OFFSET 1.62519 -0.234802 1.16502
                  }
                }
              }
              JOINT lMid1
              {
                OFFSET 8.24714 1.18213 3.41376
                CHANNELS 3 Zrotation Xrotation Yrotation
                JOINT lMid2
                {
                  OFFSET 3.10165 -0.590103 1.0647
                  CHANNELS 3 Zrotation Xrotation Yrotation
                  End Site
                  {
                    OFFSET 2.48547 -0.328903 0.83742
                  }
                }
              }
              JOINT lRing1
              {
                OFFSET 8.82822 0.546677 1.51678
                CHANNELS 3 Zrotation Xrotation Yrotation
                JOINT lRing2
                {
                  OFFSET 2.60934 -0.819778 -0.0198488
                  CHANNELS 3 Zrotation Xrotation Yrotation
                  End Site
                  {
                    OFFSET 2.33842 -0.294052 0.168128
                  }
                }
              }
              JOINT lPinky1
              {
                OFFSET 8.27202 -0.0477905 -0.4584
                CHANNELS 3 Zrotation Xrotation Yrotation
                JOINT lPinky2
                {
                  OFFSET 1.82734 -0.647385 -0.700984
                  CHANNELS 3 Zrotation Xrotation Yrotation
                  End Site
                  {
                    OFFSET 1.69225 -0.51767 -0.607171
                  }
                }
              }
            }
          }
        }
      }
    }
  }
  JOINT rButtock
  {
    OFFSET -8.77824 4.35084 1.2192
    CHANNELS 3 Zrotation Xrotation Yrotation
    JOINT rThigh
    {
      OFFSET 0 -1.70687 -2.19456
      CHANNELS 3 Zrotation Xrotation Yrotation
      JOINT rShin
      {
        OFFSET 0 -36.8199 0.73152
        CHANNELS 3 Zrotation Xrotation Yrotation
        JOINT rFoot
        {
          OFFSET 0.73152 -45.1104 -5.12064
          CHANNELS 3 Zrotation Xrotation Yrotation
          End Site
          {
            OFFSET -1.1221 -3.69964 12.103
          }
        }
      }
    }
  }
  JOINT lButtock
  {
    OFFSET 8.77824 4.35084 1.2192
    CHANNELS 3 Zrotation Xrotation Yrotation
    JOINT lThigh
    {
      OFFSET 0 -1.70687 -2.19456
      CHANNELS 3 Zrotation Xrotation Yrotation
      JOINT lShin
      {
        OFFSET 0 -36.8199 0.73152
        CHANNELS 3 Zrotation Xrotation Yrotation
        JOINT lFoot
        {
          OFFSET -0.73152 -45.1104 -5.12064
          CHANNELS 3 Zrotation Xrotation Yrotation
          End Site
          {
            OFFSET 1.1221 -3.69964 12.103
          }
        }
      }
    }
  }
}
MOTION
Frames:	5
Frame Time:	0.00833333
-205.25 85.1237 -0.56021 0.0 0.0 0.0 0.435974 -0.0238512 0.0128201 0.121275 -0.0396248 0.0210494 1.01464e-14 -7.95139e-16 -4.96962e-17 3.04172e-14 3.18055e-15 -1.44429e-16 -0.0 0.0 0.0 -0.0 0.0 0.0 5.11684e-15 -1.2424e-16 9.93923e-17 1.08184e-13 -2.39163e-15 5.96354e-16 1.82494e-12 -6.28955e-13 -2.54444e-14 2.10114e-11 1.37186e-13 -8.26944e-14 4.95362e-11 -1.06966e-12 -2.22639e-13 8.55315e-11 -1.8479e-12 -3.94389e-13 4.95387e-11 -1.06906e-12 -2.44903e-13 7.73091 5.47488 0.417314 4.95352e-11 -1.07026e-12 -2.25819e-13 2.90554 0.965183 0.102902 4.95389e-11 -1.07006e-12 -2.29e-13 10.2786 0.731801 0.0259123 4.9532e-11 -1.06787e-12 -2.25819e-13 2.22167 -0.733487 -0.20892 5.02152e-15 -1.2424e-16 -1.49089e-16 1.04186e-13 -2.11209e-15 -7.95139e-16 1.84567e-12 4.66746e-13 -2.54444e-14 2.09874e-11 -9.68777e-13 -7.31528e-14 4.95326e-11 -1.09237e-12 -2.25819e-13 8.55553e-11 -1.88607e-12 -4.01545e-13 4.95292e-11 -1.09173e-12 -2.19458e-13 -7.73091 5.47488 -0.417314 4.9534e-11 -1.09292e-12 -2.35361e-13 -2.90554 0.965183 -0.102902 4.95289e-11 -1.09242e-12 -2.2741e-13 -10.2786 0.731801 -0.0259123 4.95385e-11 -1.08894e-12 -2.3218e-13 -2.22167 -0.733487 0.20892 -2.03217e-16 0.0 -3.88251e-19 0.651921 -4.7111 -0.0694744 -0.000843617 2.99808 0.00382301 -0.326312 1.72324 0.0697791 2.03217e-16 0.0 3.88251e-19 0.0330806 -2.68025 0.0231614 0.00579541 -0.679763 0.0505459 0.296221 3.3702 -0.0966885
-196.806 83.1398 -10.303 -98.1663 86.9912 -88.2595 1.28754 -1.03627 1.25641 0.0643559 -4.21263 0.419163 -0.438969 -0.855658 -1.14179 0.395357 4.16927 -1.80783 -0.0 0.0 0.0 -0.0 0.0 0.0 -1.09394e-14 -3.32041e-13 7.10927e-15 18.8297 12.6727 -3.45838 -5.01219 -2.461 7.6191 0.0159739 -2.80496 -0.392508 1.25071e-10 -1.7956e-11 1.75354e-10 2.15422e-10 -3.15214e-11 3.0391e-10 1.25073e-10 -1.79534e-11 1.75334e-10 7.73091 5.47488 0.417314 1.25069e-10 -1.79546e-11 1.75352e-10 2.90554 0.965183 0.102902 1.25075e-10 -1.79542e-11 1.7535e-10 10.2786 0.731801 0.0259123 1.25069e-10 -1.79527e-11 1.75353e-10 2.22167 -0.733487 -0.20892 -1.09975e-14 -3.3204e-13 6.90505e-15 -21.4227 5.79838 4.62894 4.7696 -2.28908 -7.31268 -0.0088925 2.09292 -0.293433 3.03007e-10 -6.75147e-11 -7.78965e-11 5.2304e-10 -1.18632e-10 -1.3674e-10 3.03003e-10 -6.75185e-11 -7.78921e-11 -7.73091 5.47488 -0.417314 3.03009e-10 -6.75182e-11 -7.79083e-11 -2.90554 0.965183 -0.102902 3.03004e-10 -6.75167e-11 -7.79012e-11 -10.2786 0.731801 -0.0259123 3.03015e-10 -6.75127e-11 -7.79088e-11 -2.22167 -0.733487 0.20892 -2.03217e-16 0.0 -3.88251e-19 1.43653 -8.6308 3.09193 0.018031 7.50144 0.101047 -0.367444 -5.14085 -3.11099 2.03217e-16 0.0 3.88251e-19 -3.16475 -2.65582 -8.37852 0.0100192 -0.776261 0.107357 0.526115 -4.32834 7.06748
-196.654 83.141 -10.42 -99.3891 87.1055 -89.4891 2.24146 -2.1078 2.57407 0.0651815 -8.62572 0.847442 -0.941433 -1.74696 -2.3476 1.10552 8.56122 -3.7463 -0.0 0.0 0.0 -0.0 0.0 0.0 -2.87605e-14 -7.0293e-13 1.56201e-14 40.5665 25.9201 -7.72541 -9.61287 -4.92323 15.7291 -0.0091514 -5.77766 -0.811694 2.40629e-10 -2.12356e-11 3.45025e-10 4.14542e-10 -3.77381e-11 5.98237e-10 2.4063e-10 -2.12306e-11 3.45008e-10 7.73091 5.47488 0.417314 2.40627e-10 -2.12319e-11 3.45024e-10 2.90554 0.965183 0.102902 2.40634e-10 -2.12313e-11 3.45023e-10 10.2786 0.731801 0.0259123 2.40629e-10 -2.12306e-11 3.45027e-10 2.22167 -0.733487 -0.20892 -2.87771e-14 -7.02927e-13 1.54648e-14 -45.0997 11.7965 9.68633 9.17711 -4.58094 -15.0732 0.00509851 4.31242 -0.605946 5.64253e-10 -1.24577e-10 -1.33959e-10 9.74053e-10 -2.19267e-10 -2.35748e-10 5.64248e-10 -1.24585e-10 -1.33957e-10 -7.73091 5.47488 -0.417314 5.64255e-10 -1.24583e-10 -1.33973e-10 -2.90554 0.965183 -0.102902 5.64251e-10 -1.24581e-10 -1.33967e-10 -10.2786 0.731801 -0.0259123 5.64263e-10 -1.24576e-10 -1.33978e-10 -2.22167 -0.733487 0.20892 -2.03217e-16 0.0 -3.88251e-19 2.75962 -12.7146 6.54007 0.0210166 12.2469 0.206352 -1.25653 -12.328 -6.61242 2.03217e-16 0.0 3.88251e-19 -6.52903 -2.55678 -17.2908 0.0147189 -0.896788 0.168008 2.89246 -12.1313 14.9854
-196.491 83.1133 -10.5126 -101.786 87.1314 -91.8892 3.12258 -3.05533 3.7483 0.128151 -12.5561 1.24169 -1.41924 -2.5629 -3.42843 1.99024 12.4574 -5.53996 -0.0 0.0 0.0 -0.0 0.0 0.0 -4.30519e-14 -9.95876e-13 2.1129e-14 62.0523 37.3897 -12.7794 -13.1191 -6.8619 23.0103 -0.0684307 -8.4133 -1.18891 2.7614e-10 -5.17288e-11 5.26507e-10 4.75203e-10 -9.08683e-11 9.12518e-10 2.76141e-10 -5.17219e-11 5.26493e-10 7.73091 5.47488 0.417314 2.76138e-10 -5.17232e-11 5.26507e-10 2.90554 0.965183 0.102902 2.76146e-10 -5.17225e-11 5.26507e-10 10.2786 0.731801 0.0259123 2.76142e-10 -5.17224e-11 5.26512e-10 2.22167 -0.733487 -0.20892 -4.30356e-14 -9.95872e-13 2.10133e-14 -67.1554 16.9313 14.4549 12.5943 -6.42075 -22.066 0.037962 6.2781 -0.88502 8.09956e-10 -2.0036e-10 -2.33238e-10 1.39801e-09 -3.52122e-10 -4.09418e-10 8.0995e-10 -2.00372e-10 -2.33237e-10 -7.73091 5.47488 -0.417314 8.09958e-10 -2.00369e-10 -2.33254e-10 -2.90554 0.965183 -0.102902 8.09953e-10 -2.00365e-10 -2.33249e-10 -10.2786 0.731801 -0.0259123 8.09967e-10 -2.0036e-10 -2.33262e-10 -2.22167 -0.733487 0.20892 -2.03217e-16 0.0 -3.88251e-19 4.3456 -16.2839 9.70187 0.00814655 16.508 0.305504 -2.82763 -18.6266 -9.96159 2.03217e-16 0.0 3.88251e-19 -9.53049 -2.43725 -25.179 0.019041 -0.969252 0.220987 6.86107 -18.4151 22.5476
-196.346 83.0704 -10.5623 -103.255 86.9413 -93.3125 3.72773 -3.69845 4.55938 0.219511 -15.2822 1.52588 -1.76581 -3.19414 -4.19413 2.74241 15.1614 -6.86166 -0.0 0.0 0.0 -0.0 0.0 0.0 -4.85186e-14 -1.09396e-12 1.9133e-14 78.6974 44.9981 -17.5612 -15.2339 -7.99442 28.0714 -0.129528 -10.2078 -1.45014 1.11533e-10 -1.50256e-10 7.3752e-10 1.8972e-10 -2.61283e-10 1.27668e-09 1.11533e-10 -1.50248e-10 7.37507e-10 7.73091 5.47488 0.417314 1.1153e-10 -1.5025e-10 7.3752e-10 2.90554 0.965183 0.102902 1.11538e-10 -1.50249e-10 7.37521e-10 10.2786 0.731801 0.0259123 1.11534e-10 -1.50249e-10 7.37526e-10 2.22167 -0.733487 -0.20892 -4.84915e-14 -1.09396e-12 1.90336e-14 -83.0897 20.3515 17.9599 14.7222 -7.55214 -27.0187 0.0715559 7.60986 -1.07589 1.0168e-09 -3.22944e-10 -4.40558e-10 1.75433e-09 -5.65525e-10 -7.69743e-10 1.01679e-09 -3.22959e-10 -4.40558e-10 -7.73091 5.47488 -0.417314 1.0168e-09 -3.22954e-10 -4.40574e-10 -2.90554 0.965183 -0.102902 1.01679e-09 -3.22951e-10 -4.40569e-10 -10.2786 0.731801 -0.0259123 1.01681e-09 -3.22946e-10 -4.40583e-10 -2.22167 -0.733487 0.20892 -2.03217e-16 0.0 -3.88251e-19 5.62187 -18.7381 11.8984 -0.0107833 19.5584 0.38058 -4.38156 -22.9426 -12.4459 2.03217e-16 0.0 3.88251e-19 -11.6693 -2.38084 -30.5104 0.0218361 -0.921561 0.254775 10.5672 -22.2325 28.008
